<?xml version="1.0" encoding="UTF-8" standalone="no"?>
<!-- Created with Inkscape (http://www.inkscape.org/) -->

<svg
   xmlns:dc="http://purl.org/dc/elements/1.1/"
   xmlns:cc="http://creativecommons.org/ns#"
   xmlns:rdf="http://www.w3.org/1999/02/22-rdf-syntax-ns#"
   xmlns:svg="http://www.w3.org/2000/svg"
   xmlns="http://www.w3.org/2000/svg"
   xmlns:sodipodi="http://sodipodi.sourceforge.net/DTD/sodipodi-0.dtd"
   xmlns:inkscape="http://www.inkscape.org/namespaces/inkscape"
   width="1000"
   height="1000"
   viewBox="0 0 264.58333 264.58334"
   version="1.1"
   id="svg8"
   inkscape:version="0.92.0 r15299"
   sodipodi:docname="x.svg">
  <defs
     id="defs2" />
  <sodipodi:namedview
     id="base"
     pagecolor="#ffffff"
     bordercolor="#666666"
     borderopacity="1.0"
     inkscape:pageopacity="0.0"
     inkscape:pageshadow="2"
     inkscape:zoom="0.45254834"
     inkscape:cx="1359.9209"
     inkscape:cy="227.54065"
     inkscape:document-units="px"
     inkscape:current-layer="layer1"
     showgrid="false"
     units="px"
     inkscape:window-width="1920"
     inkscape:window-height="1001"
     inkscape:window-x="-9"
     inkscape:window-y="-9"
     inkscape:window-maximized="1"
     inkscape:pagecheckerboard="false"
     showborder="true"
     inkscape:showpageshadow="true"
     inkscape:measure-start="0,0"
     inkscape:measure-end="0,0"
     inkscape:snap-center="true">
    <inkscape:grid
       type="xygrid"
       id="grid4503"
       visible="true" />
  </sodipodi:namedview>
  <metadata
     id="metadata5">
    <rdf:RDF>
      <cc:Work
         rdf:about="">
        <dc:format>image/svg+xml</dc:format>
        <dc:type
           rdf:resource="http://purl.org/dc/dcmitype/StillImage" />
        <dc:title></dc:title>
      </cc:Work>
    </rdf:RDF>
  </metadata>
  <g
     inkscape:label="Layer 1"
     inkscape:groupmode="layer"
     id="layer1"
     transform="translate(0,-32.41665)">
    <path
       style="opacity:1;fill:#999999;fill-opacity:1;stroke:none;stroke-width:1.54071784;stroke-miterlimit:4;stroke-dasharray:none;stroke-opacity:1"
       d="m 192.37391,63.183147 c -4.34614,-4.346129 -11.34389,-4.346129 -15.69001,0 L 132.29167,107.57537 87.899447,63.183147 c -4.34614,-4.346139 -11.343883,-4.346139 -15.690012,0 L 30.766234,104.62633 c -4.346129,4.34613 -4.346129,11.34389 0,15.69002 l 44.392239,44.39224 -44.391721,44.3917 c -4.34613,4.34613 -4.34613,11.34389 0,15.69002 l 41.443186,41.44319 c 4.346143,4.34612 11.343886,4.34612 15.690013,0 l 44.391719,-44.39171 44.39171,44.39171 c 4.34613,4.34612 11.34387,4.34612 15.69001,0 l 41.44319,-41.44321 c 4.34614,-4.34612 4.34614,-11.34387 0,-15.69001 l -44.39171,-44.39171 44.39223,-44.39221 c 4.34613,-4.34614 4.34613,-11.34388 0,-15.69001 z"
       id="rect6504"
       inkscape:connector-curvature="0" />
  </g>
</svg>
